<svg id="Layer_3" data-name="Layer 3" xmlns="http://www.w3.org/2000/svg" viewBox="0 0 16 16"><defs><style>.cls-1{fill:#fff;}.cls-2{fill:#25342e;}</style></defs><rect class="cls-1" width="16" height="16" rx="3.01"/><path class="cls-2" d="M1311.08,2.79l.4-.81s0,0,.06,0l2.77,5.32a.06.06,0,0,1,0,.09l-.84.3a.06.06,0,0,1-.09,0l-2.26-4.81A0,0,0,0,1,1311.08,2.79Z" transform="translate(-1300)"/><path class="cls-2" d="M1308.56,8.07a1.85,1.85,0,0,1,2.1-1.78.08.08,0,0,1,.07.08c0,.32,0,1.72.06,2a.05.05,0,0,1-.07.05l-2.13-.34A0,0,0,0,1,1308.56,8.07Z" transform="translate(-1300)"/><path class="cls-2" d="M1311.07,6.49l.08,2a.11.11,0,0,0,.08.08l1.5.28a.05.05,0,0,0,.06,0,2.6,2.6,0,0,0-1.67-2.35S1311.07,6.46,1311.07,6.49Z" transform="translate(-1300)"/><path class="cls-2" d="M1308.5,8.72l-.21,2.71s0,.08.08.06a20,20,0,0,1,2.42-.45.09.09,0,0,0,.06-.07l0-1.91s0-.07-.06-.07l-2.17-.33A.06.06,0,0,0,1308.5,8.72Z" transform="translate(-1300)"/><path class="cls-2" d="M1311.24,11l0-1.85s0-.06.07-.06l1.51.25a.06.06,0,0,1,.06.06l.21,1.75a0,0,0,0,1,0,0,11.4,11.4,0,0,0-1.68-.12A.08.08,0,0,1,1311.24,11Z" transform="translate(-1300)"/><path class="cls-2" d="M1307.3,7.91l-.59,3.92a.16.16,0,0,1-.09.12,48.19,48.19,0,0,0-4.88,2.48,0,0,0,0,1,0,0l1.58-4.75a.12.12,0,0,1,.08-.09l3.9-1.68S1307.31,7.88,1307.3,7.91Z" transform="translate(-1300)"/><path class="cls-2" d="M1302,9.38l5.78-2.52a.39.39,0,0,0,.1-.08l3.25-5.17a0,0,0,0,0,0,0l-5.63,3.71L1302,9.34A0,0,0,1,0,1302,9.38Z" transform="translate(-1300)"/></svg>