<svg width="117" height="120" viewBox="0 0 117 120" fill="none" xmlns="http://www.w3.org/2000/svg">
<path fill-rule="evenodd" clip-rule="evenodd" d="M34.4534 0.36C40.6829 0.0654545 42.6691 0 58.5375 0C74.406 0 76.3922 0.070909 82.6163 0.36C88.8405 0.649091 93.0891 1.66909 96.8066 3.14727C100.699 4.65818 104.231 7.02 107.152 10.0745C110.126 13.0691 112.42 16.6909 113.886 20.6945C115.33 24.5127 116.318 28.8764 116.605 35.2582C116.892 41.6673 116.955 43.7073 116.955 60C116.955 76.2982 116.886 78.3382 116.605 84.7364C116.323 91.1182 115.33 95.4818 113.886 99.3C112.42 103.304 110.122 106.932 107.152 109.931C104.231 112.985 100.699 115.342 96.8066 116.847C93.0891 118.331 88.8405 119.345 82.627 119.64C76.3922 119.935 74.406 120 58.5375 120C42.6691 120 40.6829 119.929 34.4534 119.64C28.2399 119.351 23.9913 118.331 20.2738 116.847C16.3753 115.342 12.8432 112.981 9.92322 109.931C6.95123 106.935 4.65134 103.308 3.18391 99.3055C1.74471 95.4873 0.756915 91.1236 0.470136 84.7418C0.183357 78.3327 0.119629 76.2927 0.119629 60C0.119629 43.7018 0.188668 41.6618 0.470136 35.2691C0.751604 28.8764 1.74471 24.5127 3.18391 20.6945C4.65351 16.6914 6.95515 13.0653 9.92853 10.0691C12.8443 7.01728 16.3729 4.65515 20.2685 3.14727C23.986 1.66909 28.2346 0.654545 34.4481 0.36H34.4534ZM82.1437 11.16C75.9832 10.8709 74.1351 10.8109 58.5375 10.8109C42.94 10.8109 41.0918 10.8709 34.9314 11.16C29.233 11.4273 26.1422 12.4036 24.0816 13.2273C21.3572 14.3182 19.4082 15.6109 17.3635 17.7109C15.4254 19.6476 13.9338 22.0052 12.9981 24.6109C12.1962 26.7273 11.2456 29.9018 10.9854 35.7545C10.7039 42.0818 10.6455 43.98 10.6455 60C10.6455 76.02 10.7039 77.9182 10.9854 84.2455C11.2456 90.0982 12.1962 93.2727 12.9981 95.3891C13.9328 97.9909 15.4251 100.353 17.3635 102.289C19.2488 104.28 21.5484 105.813 24.0816 106.773C26.1422 107.596 29.233 108.573 34.9314 108.84C41.0918 109.129 42.9346 109.189 58.5375 109.189C74.1404 109.189 75.9832 109.129 82.1437 108.84C87.8421 108.573 90.9329 107.596 92.9935 106.773C95.7179 105.682 97.6669 104.389 99.7115 102.289C101.65 100.353 103.142 97.9909 104.077 95.3891C104.879 93.2727 105.829 90.0982 106.09 84.2455C106.371 77.9182 106.43 76.02 106.43 60C106.43 43.98 106.371 42.0818 106.09 35.7545C105.829 29.9018 104.879 26.7273 104.077 24.6109C103.015 21.8127 101.756 19.8109 99.7115 17.7109C97.8259 15.7204 95.5304 14.1884 92.9935 13.2273C90.9329 12.4036 87.8421 11.4273 82.1437 11.16V11.16ZM51.076 78.4964C55.2431 80.278 59.8832 80.5184 64.2037 79.1767C68.5242 77.8349 72.2572 74.9941 74.765 71.1395C77.2728 67.2849 78.3999 62.6557 77.9538 58.0424C77.5076 53.4291 75.5159 49.118 72.3189 45.8455C70.2808 43.7535 67.8165 42.1517 65.1034 41.1553C62.3902 40.159 59.4957 39.7929 56.6283 40.0834C53.7609 40.3738 50.9918 41.3137 48.5205 42.8353C46.0491 44.3568 43.937 46.4222 42.3361 48.8828C40.7353 51.3434 39.6855 54.1379 39.2624 57.0652C38.8392 59.9925 39.0533 62.9798 39.8892 65.8119C40.725 68.644 42.1618 71.2506 44.0962 73.4439C46.0306 75.6373 48.4144 77.3628 51.076 78.4964ZM37.3053 38.1927C40.0935 35.329 43.4037 33.0573 47.0467 31.5074C50.6898 29.9576 54.5943 29.1599 58.5375 29.1599C62.4807 29.1599 66.3853 29.9576 70.0284 31.5074C73.6714 33.0573 76.9815 35.329 79.7698 38.1927C82.5581 41.0565 84.7698 44.4563 86.2788 48.198C87.7878 51.9397 88.5645 55.95 88.5645 60C88.5645 64.05 87.7878 68.0603 86.2788 71.802C84.7698 75.5437 82.5581 78.9435 79.7698 81.8073C74.1386 87.5909 66.5012 90.8401 58.5375 90.8401C50.5739 90.8401 42.9364 87.5909 37.3053 81.8073C31.6741 76.0236 28.5106 68.1793 28.5106 60C28.5106 51.8207 31.6741 43.9764 37.3053 38.1927V38.1927ZM95.224 33.7527C95.9149 33.0833 96.4681 32.2783 96.8507 31.3853C97.2333 30.4924 97.4375 29.5296 97.4514 28.5542C97.4652 27.5787 97.2884 26.6103 96.9313 25.7062C96.5742 24.8022 96.0441 23.981 95.3725 23.2911C94.7008 22.6013 93.9012 22.0569 93.021 21.6901C92.1409 21.3233 91.198 21.1417 90.2482 21.1559C89.2984 21.1701 88.3611 21.3799 87.4917 21.7729C86.6223 22.1658 85.8385 22.734 85.1867 23.4436C83.9191 24.8238 83.2251 26.657 83.252 28.5542C83.279 30.4513 84.0247 32.263 85.3309 33.6046C86.6372 34.9462 88.4011 35.7122 90.2482 35.7398C92.0953 35.7675 93.8802 35.0547 95.224 33.7527V33.7527Z" fill="#25342e"/>
</svg>
