<svg width="60" height="60" viewBox="0 0 60 60" fill="none" xmlns="http://www.w3.org/2000/svg">
<path d="M38.7501 2.50006H18.7501C15.3001 2.50006 12.5001 5.30006 12.5001 8.75006V51.2501C12.5001 54.7001 15.3001 57.5001 18.7501 57.5001H38.7501C42.2001 57.5001 45.0001 54.7001 45.0001 51.2501V8.75006C45.0001 5.30006 42.2001 2.50006 38.7501 2.50006ZM28.7501 55.0001C26.6751 55.0001 25.0001 53.3251 25.0001 51.2501C25.0001 49.1751 26.6751 47.5001 28.7501 47.5001C30.8251 47.5001 32.5001 49.1751 32.5001 51.2501C32.5001 53.3251 30.8251 55.0001 28.7501 55.0001ZM40.0001 45.0001H17.5001V10.0001H40.0001V45.0001Z" fill="#25342e"/>
</svg>
