<svg width="50" height="50" viewBox="0 0 50 50" fill="none" xmlns="http://www.w3.org/2000/svg">
<path d="M37.5 16.6666C37.5 9.77079 31.8958 4.16663 25 4.16663C18.1042 4.16663 12.5 9.77079 12.5 16.6666C12.5 26.0416 25 39.5833 25 39.5833C25 39.5833 37.5 26.0416 37.5 16.6666ZM20.8333 16.6666C20.8333 14.375 22.7083 12.5 25 12.5C27.2917 12.5 29.1667 14.375 29.1667 16.6666C29.1667 18.9583 27.3125 20.8333 25 20.8333C22.7083 20.8333 20.8333 18.9583 20.8333 16.6666ZM10.4167 41.6666V45.8333H39.5833V41.6666H10.4167Z" fill="#25342e"/>
</svg>
